<?xml version="1.0" standalone="no"?>
<!DOCTYPE svg PUBLIC "-//W3C//DTD SVG 20010904//EN"
 "http://www.w3.org/TR/2001/REC-SVG-20010904/DTD/svg10.dtd">
<svg version="1.0" xmlns="http://www.w3.org/2000/svg"
 width="240.000000pt" height="240.000000pt" viewBox="0 0 240.000000 240.000000"
 preserveAspectRatio="xMidYMid meet">
<metadata>
Created by potrace 1.14, written by Peter Selinger 2001-2017
</metadata>
<g transform="translate(0.000000,240.000000) scale(0.100000,-0.100000)"
fill="#000000" stroke="none">
<path d="M1143 2315 c-13 -7 -20 -15 -15 -20 4 -4 -1 -5 -11 -2 -11 4 -16 3
-12 -3 3 -6 -1 -10 -10 -10 -9 0 -13 -4 -10 -10 3 -5 1 -10 -4 -10 -10 0 -15
14 -12 33 1 5 -3 6 -8 3 -5 -4 -8 -16 -6 -27 3 -13 0 -19 -8 -16 -7 3 -11 10
-9 16 1 7 -2 10 -8 6 -5 -3 -10 -1 -10 6 0 7 -3 10 -6 7 -3 -4 -1 -16 6 -27 6
-12 7 -21 1 -21 -5 0 -12 6 -14 13 -3 6 -6 3 -6 -8 -1 -16 -3 -17 -11 -5 -6 9
-5 20 3 30 10 13 10 13 -4 2 -10 -8 -15 -21 -12 -35 4 -18 3 -19 -6 -7 -9 13
-11 13 -11 -2 0 -9 -5 -20 -12 -24 -8 -5 -9 -2 -5 10 4 10 3 15 -3 11 -6 -3
-10 -14 -10 -23 0 -10 -3 -13 -8 -7 -14 20 -30 15 -24 -8 4 -18 3 -20 -9 -11
-11 9 -19 5 -37 -17 -13 -16 -19 -29 -13 -29 7 0 5 -10 -5 -25 -9 -14 -20 -23
-24 -20 -5 3 -11 -4 -15 -15 -3 -11 -11 -20 -17 -20 -6 0 -8 -12 -5 -29 5 -26
4 -28 -16 -23 -18 4 -20 3 -10 -9 8 -10 9 -34 3 -83 -4 -37 -6 -104 -4 -149 3
-63 0 -96 -15 -142 -16 -50 -27 -66 -22 -33 0 5 -5 7 -12 5 -6 -1 -11 3 -10
10 2 10 -4 11 -42 3 -5 -1 -13 -1 -17 0 -16 5 -24 7 -71 15 -41 6 -55 4 -85
-13 -21 -11 -41 -20 -47 -20 -5 0 -15 -8 -20 -19 -6 -11 -18 -19 -27 -17 -10
1 -17 -1 -16 -4 1 -4 -4 -20 -11 -37 -28 -65 -50 -159 -52 -218 -1 -34 -7 -68
-13 -76 -6 -8 -6 -12 -1 -9 6 4 10 -26 10 -83 1 -49 -2 -89 -5 -89 -4 0 -6 -8
-6 -18 1 -9 -3 -18 -8 -19 -8 -3 -12 46 -6 62 2 3 3 8 4 13 1 4 4 12 8 17 8
14 -2 65 -14 65 -11 0 -36 -58 -48 -113 -4 -23 -11 -52 -13 -64 -3 -12 1 -27
9 -33 7 -7 11 -16 8 -22 -8 -13 24 -58 39 -55 6 1 11 -4 9 -12 -1 -7 3 -19 9
-27 6 -8 8 -14 3 -14 -5 0 2 -6 16 -13 14 -8 24 -20 22 -28 -3 -11 -1 -12 9
-1 11 10 15 1 25 -45 7 -32 15 -71 19 -87 l8 -29 -44 7 c-63 9 -135 -15 -187
-63 -23 -22 -42 -44 -42 -50 0 -10 -14 -15 -33 -12 -4 0 -7 -4 -7 -10 0 -6 12
-8 28 -6 21 3 32 -1 40 -14 7 -11 19 -19 27 -19 8 0 14 -6 13 -12 -2 -8 5 -12
16 -10 12 2 15 -1 11 -8 -6 -9 -2 -9 14 -1 17 10 21 9 21 -3 0 -8 9 -18 20
-21 11 -4 18 -11 15 -16 -3 -5 0 -6 8 -3 8 3 33 -5 55 -16 23 -12 48 -23 56
-24 8 -1 20 -7 27 -12 18 -14 128 -65 156 -73 13 -3 22 -9 20 -14 -1 -4 13
-16 31 -27 36 -22 46 -25 37 -10 -9 14 19 12 34 -2 15 -16 53 -17 63 -3 5 6 8
1 8 -10 1 -18 4 -16 25 10 17 21 21 33 14 42 -6 7 -9 17 -7 23 2 7 33 -9 71
-34 58 -41 95 -61 132 -72 121 -38 155 -44 215 -40 73 6 143 13 150 16 3 1 8
2 12 1 4 0 21 6 39 13 22 9 42 11 63 5 17 -5 38 -9 47 -9 19 0 119 137 119
163 0 17 2 17 26 -2 l27 -21 54 77 c29 43 65 94 79 113 14 19 55 77 91 128
l65 94 -27 28 -27 29 21 34 c11 19 18 37 14 40 -3 4 -1 7 5 7 7 0 12 5 12 10
0 6 9 21 21 33 11 12 23 35 26 50 3 15 8 25 11 22 9 -9 31 45 25 63 -6 16 -32
37 -43 35 -3 -1 -14 6 -25 16 -28 26 -64 43 -75 36 -5 -3 -14 4 -20 15 -8 15
-8 20 3 20 7 0 18 -5 25 -12 7 -7 12 -9 12 -4 0 4 12 -2 26 -13 15 -11 30 -18
35 -15 5 3 9 1 9 -4 0 -5 26 -22 58 -38 31 -15 60 -32 64 -38 4 -6 8 -7 8 -3
0 5 7 1 16 -7 23 -23 28 -21 75 32 66 75 102 160 107 258 3 46 2 94 -2 107 -6
24 -148 140 -198 161 -14 7 -36 23 -47 37 -11 14 -80 58 -154 98 l-135 73 -4
77 c-4 61 -11 90 -37 140 -29 57 -30 64 -15 75 23 17 14 51 -14 51 -12 0 -41
19 -64 41 -98 93 -176 138 -295 168 -77 20 -211 26 -240 11z"/>
<path d="M730 1970 c0 -5 5 -10 11 -10 5 0 7 5 4 10 -3 6 -8 10 -11 10 -2 0
-4 -4 -4 -10z"/>
<path d="M174 946 c1 -8 5 -18 8 -22 4 -3 5 1 4 10 -1 8 -5 18 -8 22 -4 3 -5
-1 -4 -10z"/>
<path d="M205 881 c-3 -5 -2 -12 3 -15 5 -3 9 1 9 9 0 17 -3 19 -12 6z"/>
<path d="M313 665 c0 -8 4 -12 9 -9 5 3 6 10 3 15 -9 13 -12 11 -12 -6z"/>
<path d="M344 646 c1 -8 5 -18 8 -22 4 -3 5 1 4 10 -1 8 -5 18 -8 22 -4 3 -5
-1 -4 -10z"/>
<path d="M123 575 c0 -8 4 -12 9 -9 5 3 6 10 3 15 -9 13 -12 11 -12 -6z"/>
<path d="M93 536 c-13 -6 -23 -14 -23 -19 0 -9 36 9 45 23 3 6 5 9 3 9 -2 -1
-13 -6 -25 -13z"/>
</g>
</svg>
